<mxfile host="Electron" agent="Mozilla/5.0 (Windows NT 10.0; Win64; x64) AppleWebKit/537.36 (KHTML, like Gecko) draw.io/28.0.6 Chrome/138.0.7204.100 Electron/37.2.3 Safari/537.36" version="28.0.6">
  <diagram name="Страница — 1" id="yojgwKywdg1i8IU8_6Fm">
    <mxGraphModel dx="1500" dy="668" grid="1" gridSize="10" guides="1" tooltips="1" connect="1" arrows="1" fold="1" page="1" pageScale="1" pageWidth="1169" pageHeight="827" math="0" shadow="0">
      <root>
        <mxCell id="0" />
        <mxCell id="1" parent="0" />
        <mxCell id="kRf5InseIL7dYyA1KGaL-7" value="Недвижимость" style="shape=table;startSize=30;container=1;collapsible=0;childLayout=tableLayout;fixedRows=1;rowLines=0;fontStyle=0;strokeColor=default;fontSize=14;labelBackgroundColor=none;fillColor=#6666FF;rounded=0;" parent="1" vertex="1">
          <mxGeometry x="370" y="540" width="350" height="150" as="geometry" />
        </mxCell>
        <mxCell id="kRf5InseIL7dYyA1KGaL-8" value="" style="shape=tableRow;horizontal=0;startSize=0;swimlaneHead=0;swimlaneBody=0;top=0;left=0;bottom=0;right=0;collapsible=0;dropTarget=0;fillColor=none;points=[[0,0.5],[1,0.5]];portConstraint=eastwest;strokeColor=inherit;fontSize=16;rounded=0;" parent="kRf5InseIL7dYyA1KGaL-7" vertex="1">
          <mxGeometry y="30" width="350" height="30" as="geometry" />
        </mxCell>
        <mxCell id="kRf5InseIL7dYyA1KGaL-9" value="PK" style="shape=partialRectangle;html=1;whiteSpace=wrap;connectable=0;fillColor=none;top=0;left=0;bottom=1;right=0;overflow=hidden;pointerEvents=1;strokeColor=inherit;fontSize=14;strokeWidth=1;perimeterSpacing=0;rounded=0;" parent="kRf5InseIL7dYyA1KGaL-8" vertex="1">
          <mxGeometry width="31" height="30" as="geometry">
            <mxRectangle width="31" height="30" as="alternateBounds" />
          </mxGeometry>
        </mxCell>
        <mxCell id="kRf5InseIL7dYyA1KGaL-10" value="ID_недвижимости&amp;nbsp; &amp;nbsp; integer NOT NULL UNIQUE" style="shape=partialRectangle;html=1;whiteSpace=wrap;connectable=0;fillColor=none;top=0;left=0;bottom=1;right=0;align=left;spacingLeft=6;overflow=hidden;strokeColor=inherit;fontSize=14;strokeWidth=1;perimeterSpacing=0;rounded=0;" parent="kRf5InseIL7dYyA1KGaL-8" vertex="1">
          <mxGeometry x="31" width="319" height="30" as="geometry">
            <mxRectangle width="319" height="30" as="alternateBounds" />
          </mxGeometry>
        </mxCell>
        <mxCell id="kRf5InseIL7dYyA1KGaL-11" value="" style="shape=tableRow;horizontal=0;startSize=0;swimlaneHead=0;swimlaneBody=0;top=0;left=0;bottom=0;right=0;collapsible=0;dropTarget=0;fillColor=none;points=[[0,0.5],[1,0.5]];portConstraint=eastwest;strokeColor=inherit;fontSize=16;rounded=0;" parent="kRf5InseIL7dYyA1KGaL-7" vertex="1">
          <mxGeometry y="60" width="350" height="30" as="geometry" />
        </mxCell>
        <mxCell id="kRf5InseIL7dYyA1KGaL-12" value="" style="shape=partialRectangle;html=1;whiteSpace=wrap;connectable=0;fillColor=none;top=0;left=0;bottom=0;right=0;overflow=hidden;strokeColor=inherit;fontSize=14;rounded=0;" parent="kRf5InseIL7dYyA1KGaL-11" vertex="1">
          <mxGeometry width="31" height="30" as="geometry">
            <mxRectangle width="31" height="30" as="alternateBounds" />
          </mxGeometry>
        </mxCell>
        <mxCell id="kRf5InseIL7dYyA1KGaL-13" value="Адрес&amp;nbsp; &amp;nbsp; &amp;nbsp;varchar(100)&amp;nbsp; &amp;nbsp;NOT NULL" style="shape=partialRectangle;html=1;whiteSpace=wrap;connectable=0;fillColor=none;top=0;left=0;bottom=0;right=0;align=left;spacingLeft=6;overflow=hidden;strokeColor=inherit;fontSize=14;rounded=0;" parent="kRf5InseIL7dYyA1KGaL-11" vertex="1">
          <mxGeometry x="31" width="319" height="30" as="geometry">
            <mxRectangle width="319" height="30" as="alternateBounds" />
          </mxGeometry>
        </mxCell>
        <mxCell id="kRf5InseIL7dYyA1KGaL-14" value="" style="shape=tableRow;horizontal=0;startSize=0;swimlaneHead=0;swimlaneBody=0;top=0;left=0;bottom=0;right=0;collapsible=0;dropTarget=0;fillColor=none;points=[[0,0.5],[1,0.5]];portConstraint=eastwest;strokeColor=inherit;fontSize=16;rounded=0;" parent="kRf5InseIL7dYyA1KGaL-7" vertex="1">
          <mxGeometry y="90" width="350" height="30" as="geometry" />
        </mxCell>
        <mxCell id="kRf5InseIL7dYyA1KGaL-15" value="" style="shape=partialRectangle;html=1;whiteSpace=wrap;connectable=0;fillColor=none;top=0;left=0;bottom=0;right=0;overflow=hidden;strokeColor=inherit;fontSize=16;rounded=0;" parent="kRf5InseIL7dYyA1KGaL-14" vertex="1">
          <mxGeometry width="31" height="30" as="geometry">
            <mxRectangle width="31" height="30" as="alternateBounds" />
          </mxGeometry>
        </mxCell>
        <mxCell id="kRf5InseIL7dYyA1KGaL-16" value="Тип&amp;nbsp; &amp;nbsp; &amp;nbsp; &amp;nbsp; &amp;nbsp;varchar(50)" style="shape=partialRectangle;html=1;whiteSpace=wrap;connectable=0;fillColor=none;top=0;left=0;bottom=0;right=0;align=left;spacingLeft=6;overflow=hidden;strokeColor=inherit;fontSize=14;rounded=0;" parent="kRf5InseIL7dYyA1KGaL-14" vertex="1">
          <mxGeometry x="31" width="319" height="30" as="geometry">
            <mxRectangle width="319" height="30" as="alternateBounds" />
          </mxGeometry>
        </mxCell>
        <mxCell id="kRf5InseIL7dYyA1KGaL-17" style="shape=tableRow;horizontal=0;startSize=0;swimlaneHead=0;swimlaneBody=0;top=0;left=0;bottom=0;right=0;collapsible=0;dropTarget=0;fillColor=none;points=[[0,0.5],[1,0.5]];portConstraint=eastwest;strokeColor=inherit;fontSize=16;rounded=0;" parent="kRf5InseIL7dYyA1KGaL-7" vertex="1">
          <mxGeometry y="120" width="350" height="30" as="geometry" />
        </mxCell>
        <mxCell id="kRf5InseIL7dYyA1KGaL-18" style="shape=partialRectangle;html=1;whiteSpace=wrap;connectable=0;fillColor=none;top=0;left=0;bottom=0;right=0;overflow=hidden;strokeColor=inherit;fontSize=16;rounded=0;" parent="kRf5InseIL7dYyA1KGaL-17" vertex="1">
          <mxGeometry width="31" height="30" as="geometry">
            <mxRectangle width="31" height="30" as="alternateBounds" />
          </mxGeometry>
        </mxCell>
        <mxCell id="kRf5InseIL7dYyA1KGaL-19" value="Статус&amp;nbsp; &amp;nbsp; varchar(20)" style="shape=partialRectangle;html=1;whiteSpace=wrap;connectable=0;fillColor=none;top=0;left=0;bottom=0;right=0;align=left;spacingLeft=6;overflow=hidden;strokeColor=inherit;fontSize=14;rounded=0;" parent="kRf5InseIL7dYyA1KGaL-17" vertex="1">
          <mxGeometry x="31" width="319" height="30" as="geometry">
            <mxRectangle width="319" height="30" as="alternateBounds" />
          </mxGeometry>
        </mxCell>
        <mxCell id="kRf5InseIL7dYyA1KGaL-20" value="Арендаторы" style="shape=table;startSize=30;container=1;collapsible=0;childLayout=tableLayout;fixedRows=1;rowLines=0;fontStyle=0;strokeColor=default;fontSize=14;fillColor=#6666FF;rounded=0;" parent="1" vertex="1">
          <mxGeometry x="400" y="90" width="335" height="150" as="geometry" />
        </mxCell>
        <mxCell id="kRf5InseIL7dYyA1KGaL-21" value="" style="shape=tableRow;horizontal=0;startSize=0;swimlaneHead=0;swimlaneBody=0;top=0;left=0;bottom=0;right=0;collapsible=0;dropTarget=0;fillColor=none;points=[[0,0.5],[1,0.5]];portConstraint=eastwest;strokeColor=inherit;fontSize=16;rounded=0;" parent="kRf5InseIL7dYyA1KGaL-20" vertex="1">
          <mxGeometry y="30" width="335" height="30" as="geometry" />
        </mxCell>
        <mxCell id="kRf5InseIL7dYyA1KGaL-22" value="PK" style="shape=partialRectangle;html=1;whiteSpace=wrap;connectable=0;fillColor=none;top=0;left=0;bottom=1;right=0;overflow=hidden;pointerEvents=1;strokeColor=inherit;fontSize=14;rounded=0;" parent="kRf5InseIL7dYyA1KGaL-21" vertex="1">
          <mxGeometry width="32" height="30" as="geometry">
            <mxRectangle width="32" height="30" as="alternateBounds" />
          </mxGeometry>
        </mxCell>
        <mxCell id="kRf5InseIL7dYyA1KGaL-23" value="ID_арендатора&amp;nbsp; &amp;nbsp;integer&amp;nbsp; NOT NULL UNIQUE" style="shape=partialRectangle;html=1;whiteSpace=wrap;connectable=0;fillColor=none;top=0;left=0;bottom=1;right=0;align=left;spacingLeft=6;overflow=hidden;strokeColor=inherit;fontSize=14;rounded=0;" parent="kRf5InseIL7dYyA1KGaL-21" vertex="1">
          <mxGeometry x="32" width="303" height="30" as="geometry">
            <mxRectangle width="303" height="30" as="alternateBounds" />
          </mxGeometry>
        </mxCell>
        <mxCell id="kRf5InseIL7dYyA1KGaL-24" value="" style="shape=tableRow;horizontal=0;startSize=0;swimlaneHead=0;swimlaneBody=0;top=0;left=0;bottom=0;right=0;collapsible=0;dropTarget=0;fillColor=none;points=[[0,0.5],[1,0.5]];portConstraint=eastwest;strokeColor=inherit;fontSize=16;rounded=0;" parent="kRf5InseIL7dYyA1KGaL-20" vertex="1">
          <mxGeometry y="60" width="335" height="30" as="geometry" />
        </mxCell>
        <mxCell id="kRf5InseIL7dYyA1KGaL-25" value="" style="shape=partialRectangle;html=1;whiteSpace=wrap;connectable=0;fillColor=none;top=0;left=0;bottom=0;right=0;overflow=hidden;strokeColor=inherit;fontSize=14;rounded=0;" parent="kRf5InseIL7dYyA1KGaL-24" vertex="1">
          <mxGeometry width="32" height="30" as="geometry">
            <mxRectangle width="32" height="30" as="alternateBounds" />
          </mxGeometry>
        </mxCell>
        <mxCell id="kRf5InseIL7dYyA1KGaL-26" value="ФИО&amp;nbsp; &amp;nbsp; &amp;nbsp; &amp;nbsp; &amp;nbsp; &amp;nbsp;varchar(70)&amp;nbsp; &amp;nbsp;NOT NULL" style="shape=partialRectangle;html=1;whiteSpace=wrap;connectable=0;fillColor=none;top=0;left=0;bottom=0;right=0;align=left;spacingLeft=6;overflow=hidden;strokeColor=inherit;fontSize=14;rounded=0;" parent="kRf5InseIL7dYyA1KGaL-24" vertex="1">
          <mxGeometry x="32" width="303" height="30" as="geometry">
            <mxRectangle width="303" height="30" as="alternateBounds" />
          </mxGeometry>
        </mxCell>
        <mxCell id="kRf5InseIL7dYyA1KGaL-27" value="" style="shape=tableRow;horizontal=0;startSize=0;swimlaneHead=0;swimlaneBody=0;top=0;left=0;bottom=0;right=0;collapsible=0;dropTarget=0;fillColor=none;points=[[0,0.5],[1,0.5]];portConstraint=eastwest;strokeColor=inherit;fontSize=16;rounded=0;" parent="kRf5InseIL7dYyA1KGaL-20" vertex="1">
          <mxGeometry y="90" width="335" height="30" as="geometry" />
        </mxCell>
        <mxCell id="kRf5InseIL7dYyA1KGaL-28" value="" style="shape=partialRectangle;html=1;whiteSpace=wrap;connectable=0;fillColor=none;top=0;left=0;bottom=0;right=0;overflow=hidden;strokeColor=inherit;fontSize=16;rounded=0;" parent="kRf5InseIL7dYyA1KGaL-27" vertex="1">
          <mxGeometry width="32" height="30" as="geometry">
            <mxRectangle width="32" height="30" as="alternateBounds" />
          </mxGeometry>
        </mxCell>
        <mxCell id="kRf5InseIL7dYyA1KGaL-29" value="Телефон&amp;nbsp; &amp;nbsp; varchar(20)" style="shape=partialRectangle;html=1;whiteSpace=wrap;connectable=0;fillColor=none;top=0;left=0;bottom=0;right=0;align=left;spacingLeft=6;overflow=hidden;strokeColor=inherit;fontSize=14;rounded=0;" parent="kRf5InseIL7dYyA1KGaL-27" vertex="1">
          <mxGeometry x="32" width="303" height="30" as="geometry">
            <mxRectangle width="303" height="30" as="alternateBounds" />
          </mxGeometry>
        </mxCell>
        <mxCell id="kRf5InseIL7dYyA1KGaL-30" style="shape=tableRow;horizontal=0;startSize=0;swimlaneHead=0;swimlaneBody=0;top=0;left=0;bottom=0;right=0;collapsible=0;dropTarget=0;fillColor=none;points=[[0,0.5],[1,0.5]];portConstraint=eastwest;strokeColor=inherit;fontSize=16;rounded=0;" parent="kRf5InseIL7dYyA1KGaL-20" vertex="1">
          <mxGeometry y="120" width="335" height="30" as="geometry" />
        </mxCell>
        <mxCell id="kRf5InseIL7dYyA1KGaL-31" style="shape=partialRectangle;html=1;whiteSpace=wrap;connectable=0;fillColor=none;top=0;left=0;bottom=0;right=0;overflow=hidden;strokeColor=inherit;fontSize=16;rounded=0;" parent="kRf5InseIL7dYyA1KGaL-30" vertex="1">
          <mxGeometry width="32" height="30" as="geometry">
            <mxRectangle width="32" height="30" as="alternateBounds" />
          </mxGeometry>
        </mxCell>
        <mxCell id="kRf5InseIL7dYyA1KGaL-32" value="Email&amp;nbsp; &amp;nbsp; &amp;nbsp; &amp;nbsp; &amp;nbsp; varchar(70)&amp;nbsp; &amp;nbsp;UNIQUE&amp;nbsp;" style="shape=partialRectangle;html=1;whiteSpace=wrap;connectable=0;fillColor=none;top=0;left=0;bottom=0;right=0;align=left;spacingLeft=6;overflow=hidden;strokeColor=inherit;fontSize=14;rounded=0;" parent="kRf5InseIL7dYyA1KGaL-30" vertex="1">
          <mxGeometry x="32" width="303" height="30" as="geometry">
            <mxRectangle width="303" height="30" as="alternateBounds" />
          </mxGeometry>
        </mxCell>
        <mxCell id="kRf5InseIL7dYyA1KGaL-33" value="Договоры" style="shape=table;startSize=30;container=1;collapsible=0;childLayout=tableLayout;fixedRows=1;rowLines=0;fontStyle=0;strokeColor=default;fontSize=14;fillColor=#6666FF;rounded=0;" parent="1" vertex="1">
          <mxGeometry x="20" y="265" width="320" height="210" as="geometry" />
        </mxCell>
        <mxCell id="kRf5InseIL7dYyA1KGaL-34" value="" style="shape=tableRow;horizontal=0;startSize=0;swimlaneHead=0;swimlaneBody=0;top=0;left=0;bottom=0;right=0;collapsible=0;dropTarget=0;fillColor=none;points=[[0,0.5],[1,0.5]];portConstraint=eastwest;strokeColor=inherit;fontSize=16;rounded=0;" parent="kRf5InseIL7dYyA1KGaL-33" vertex="1">
          <mxGeometry y="30" width="320" height="30" as="geometry" />
        </mxCell>
        <mxCell id="kRf5InseIL7dYyA1KGaL-35" value="PK" style="shape=partialRectangle;html=1;whiteSpace=wrap;connectable=0;fillColor=none;top=0;left=0;bottom=1;right=0;overflow=hidden;pointerEvents=1;strokeColor=inherit;fontSize=14;rounded=0;" parent="kRf5InseIL7dYyA1KGaL-34" vertex="1">
          <mxGeometry width="31" height="30" as="geometry">
            <mxRectangle width="31" height="30" as="alternateBounds" />
          </mxGeometry>
        </mxCell>
        <mxCell id="kRf5InseIL7dYyA1KGaL-36" value="ID_договора&amp;nbsp; integer&amp;nbsp; NOT NULL UNIQUE" style="shape=partialRectangle;html=1;whiteSpace=wrap;connectable=0;fillColor=none;top=0;left=0;bottom=1;right=0;align=left;spacingLeft=6;overflow=hidden;strokeColor=inherit;fontSize=14;rounded=0;" parent="kRf5InseIL7dYyA1KGaL-34" vertex="1">
          <mxGeometry x="31" width="289" height="30" as="geometry">
            <mxRectangle width="289" height="30" as="alternateBounds" />
          </mxGeometry>
        </mxCell>
        <mxCell id="kRf5InseIL7dYyA1KGaL-37" value="" style="shape=tableRow;horizontal=0;startSize=0;swimlaneHead=0;swimlaneBody=0;top=0;left=0;bottom=0;right=0;collapsible=0;dropTarget=0;fillColor=none;points=[[0,0.5],[1,0.5]];portConstraint=eastwest;strokeColor=inherit;fontSize=16;rounded=0;" parent="kRf5InseIL7dYyA1KGaL-33" vertex="1">
          <mxGeometry y="60" width="320" height="30" as="geometry" />
        </mxCell>
        <mxCell id="kRf5InseIL7dYyA1KGaL-38" value="FK" style="shape=partialRectangle;html=1;whiteSpace=wrap;connectable=0;fillColor=none;top=0;left=0;bottom=1;right=0;overflow=hidden;strokeColor=inherit;fontSize=14;rounded=0;" parent="kRf5InseIL7dYyA1KGaL-37" vertex="1">
          <mxGeometry width="31" height="30" as="geometry">
            <mxRectangle width="31" height="30" as="alternateBounds" />
          </mxGeometry>
        </mxCell>
        <mxCell id="kRf5InseIL7dYyA1KGaL-39" value="ID_арендатора&amp;nbsp; &amp;nbsp;integer&amp;nbsp; NOT NULL" style="shape=partialRectangle;html=1;whiteSpace=wrap;connectable=0;fillColor=none;top=0;left=0;bottom=1;right=0;align=left;spacingLeft=6;overflow=hidden;strokeColor=inherit;fontSize=14;rounded=0;" parent="kRf5InseIL7dYyA1KGaL-37" vertex="1">
          <mxGeometry x="31" width="289" height="30" as="geometry">
            <mxRectangle width="289" height="30" as="alternateBounds" />
          </mxGeometry>
        </mxCell>
        <mxCell id="kRf5InseIL7dYyA1KGaL-40" value="" style="shape=tableRow;horizontal=0;startSize=0;swimlaneHead=0;swimlaneBody=0;top=0;left=0;bottom=0;right=0;collapsible=0;dropTarget=0;fillColor=none;points=[[0,0.5],[1,0.5]];portConstraint=eastwest;strokeColor=inherit;fontSize=16;rounded=0;" parent="kRf5InseIL7dYyA1KGaL-33" vertex="1">
          <mxGeometry y="90" width="320" height="30" as="geometry" />
        </mxCell>
        <mxCell id="kRf5InseIL7dYyA1KGaL-41" value="FK" style="shape=partialRectangle;html=1;whiteSpace=wrap;connectable=0;fillColor=none;top=0;left=0;bottom=1;right=0;overflow=hidden;strokeColor=inherit;fontSize=14;rounded=0;" parent="kRf5InseIL7dYyA1KGaL-40" vertex="1">
          <mxGeometry width="31" height="30" as="geometry">
            <mxRectangle width="31" height="30" as="alternateBounds" />
          </mxGeometry>
        </mxCell>
        <mxCell id="kRf5InseIL7dYyA1KGaL-42" value="ID_недвижимости&amp;nbsp; integer&amp;nbsp; NOT NULL&amp;nbsp;" style="shape=partialRectangle;html=1;whiteSpace=wrap;connectable=0;fillColor=none;top=0;left=0;bottom=1;right=0;align=left;spacingLeft=6;overflow=hidden;strokeColor=inherit;fontSize=14;rounded=0;" parent="kRf5InseIL7dYyA1KGaL-40" vertex="1">
          <mxGeometry x="31" width="289" height="30" as="geometry">
            <mxRectangle width="289" height="30" as="alternateBounds" />
          </mxGeometry>
        </mxCell>
        <mxCell id="kRf5InseIL7dYyA1KGaL-43" style="shape=tableRow;horizontal=0;startSize=0;swimlaneHead=0;swimlaneBody=0;top=0;left=0;bottom=0;right=0;collapsible=0;dropTarget=0;fillColor=none;points=[[0,0.5],[1,0.5]];portConstraint=eastwest;strokeColor=inherit;fontSize=16;rounded=0;" parent="kRf5InseIL7dYyA1KGaL-33" vertex="1">
          <mxGeometry y="120" width="320" height="30" as="geometry" />
        </mxCell>
        <mxCell id="kRf5InseIL7dYyA1KGaL-44" style="shape=partialRectangle;html=1;whiteSpace=wrap;connectable=0;fillColor=none;top=0;left=0;bottom=0;right=0;overflow=hidden;strokeColor=inherit;fontSize=16;rounded=0;" parent="kRf5InseIL7dYyA1KGaL-43" vertex="1">
          <mxGeometry width="31" height="30" as="geometry">
            <mxRectangle width="31" height="30" as="alternateBounds" />
          </mxGeometry>
        </mxCell>
        <mxCell id="kRf5InseIL7dYyA1KGaL-45" value="Дата_начала&amp;nbsp; &amp;nbsp; &amp;nbsp; &amp;nbsp; &amp;nbsp; &amp;nbsp; &amp;nbsp;date" style="shape=partialRectangle;html=1;whiteSpace=wrap;connectable=0;fillColor=none;top=0;left=0;bottom=0;right=0;align=left;spacingLeft=6;overflow=hidden;strokeColor=inherit;fontSize=14;rounded=0;" parent="kRf5InseIL7dYyA1KGaL-43" vertex="1">
          <mxGeometry x="31" width="289" height="30" as="geometry">
            <mxRectangle width="289" height="30" as="alternateBounds" />
          </mxGeometry>
        </mxCell>
        <mxCell id="kRf5InseIL7dYyA1KGaL-46" style="shape=tableRow;horizontal=0;startSize=0;swimlaneHead=0;swimlaneBody=0;top=0;left=0;bottom=0;right=0;collapsible=0;dropTarget=0;fillColor=none;points=[[0,0.5],[1,0.5]];portConstraint=eastwest;strokeColor=inherit;fontSize=16;rounded=0;" parent="kRf5InseIL7dYyA1KGaL-33" vertex="1">
          <mxGeometry y="150" width="320" height="30" as="geometry" />
        </mxCell>
        <mxCell id="kRf5InseIL7dYyA1KGaL-47" style="shape=partialRectangle;html=1;whiteSpace=wrap;connectable=0;fillColor=none;top=0;left=0;bottom=0;right=0;overflow=hidden;strokeColor=inherit;fontSize=16;rounded=0;" parent="kRf5InseIL7dYyA1KGaL-46" vertex="1">
          <mxGeometry width="31" height="30" as="geometry">
            <mxRectangle width="31" height="30" as="alternateBounds" />
          </mxGeometry>
        </mxCell>
        <mxCell id="kRf5InseIL7dYyA1KGaL-48" value="Дата_окончания&amp;nbsp; &amp;nbsp; &amp;nbsp; &amp;nbsp; date" style="shape=partialRectangle;html=1;whiteSpace=wrap;connectable=0;fillColor=none;top=0;left=0;bottom=0;right=0;align=left;spacingLeft=6;overflow=hidden;strokeColor=inherit;fontSize=14;rounded=0;" parent="kRf5InseIL7dYyA1KGaL-46" vertex="1">
          <mxGeometry x="31" width="289" height="30" as="geometry">
            <mxRectangle width="289" height="30" as="alternateBounds" />
          </mxGeometry>
        </mxCell>
        <mxCell id="kRf5InseIL7dYyA1KGaL-49" style="shape=tableRow;horizontal=0;startSize=0;swimlaneHead=0;swimlaneBody=0;top=0;left=0;bottom=0;right=0;collapsible=0;dropTarget=0;fillColor=none;points=[[0,0.5],[1,0.5]];portConstraint=eastwest;strokeColor=inherit;fontSize=16;rounded=0;" parent="kRf5InseIL7dYyA1KGaL-33" vertex="1">
          <mxGeometry y="180" width="320" height="30" as="geometry" />
        </mxCell>
        <mxCell id="kRf5InseIL7dYyA1KGaL-50" style="shape=partialRectangle;html=1;whiteSpace=wrap;connectable=0;fillColor=none;top=0;left=0;bottom=0;right=0;overflow=hidden;strokeColor=inherit;fontSize=16;rounded=0;" parent="kRf5InseIL7dYyA1KGaL-49" vertex="1">
          <mxGeometry width="31" height="30" as="geometry">
            <mxRectangle width="31" height="30" as="alternateBounds" />
          </mxGeometry>
        </mxCell>
        <mxCell id="kRf5InseIL7dYyA1KGaL-51" value="Аренда_в_месяц&amp;nbsp; &amp;nbsp; &amp;nbsp; &amp;nbsp;decimal(12,2)" style="shape=partialRectangle;html=1;whiteSpace=wrap;connectable=0;fillColor=none;top=0;left=0;bottom=0;right=0;align=left;spacingLeft=6;overflow=hidden;strokeColor=inherit;fontSize=14;rounded=0;" parent="kRf5InseIL7dYyA1KGaL-49" vertex="1">
          <mxGeometry x="31" width="289" height="30" as="geometry">
            <mxRectangle width="289" height="30" as="alternateBounds" />
          </mxGeometry>
        </mxCell>
        <mxCell id="kRf5InseIL7dYyA1KGaL-53" value="Заказы_на_бслуживание" style="shape=table;startSize=30;container=1;collapsible=0;childLayout=tableLayout;fixedRows=1;rowLines=0;fontStyle=0;strokeColor=default;fontSize=14;fillColor=#6666FF;rounded=0;" parent="1" vertex="1">
          <mxGeometry x="400" y="280" width="320" height="180" as="geometry" />
        </mxCell>
        <mxCell id="kRf5InseIL7dYyA1KGaL-54" value="" style="shape=tableRow;horizontal=0;startSize=0;swimlaneHead=0;swimlaneBody=0;top=0;left=0;bottom=0;right=0;collapsible=0;dropTarget=0;fillColor=none;points=[[0,0.5],[1,0.5]];portConstraint=eastwest;strokeColor=inherit;fontSize=16;rounded=0;" parent="kRf5InseIL7dYyA1KGaL-53" vertex="1">
          <mxGeometry y="30" width="320" height="30" as="geometry" />
        </mxCell>
        <mxCell id="kRf5InseIL7dYyA1KGaL-55" value="PK" style="shape=partialRectangle;html=1;whiteSpace=wrap;connectable=0;fillColor=none;top=0;left=0;bottom=1;right=0;overflow=hidden;pointerEvents=1;strokeColor=inherit;fontSize=14;rounded=0;" parent="kRf5InseIL7dYyA1KGaL-54" vertex="1">
          <mxGeometry width="35" height="30" as="geometry">
            <mxRectangle width="35" height="30" as="alternateBounds" />
          </mxGeometry>
        </mxCell>
        <mxCell id="kRf5InseIL7dYyA1KGaL-56" value="ID_заявки&amp;nbsp; &amp;nbsp; integer&amp;nbsp; NOT NULL UNIQUE" style="shape=partialRectangle;html=1;whiteSpace=wrap;connectable=0;fillColor=none;top=0;left=0;bottom=1;right=0;align=left;spacingLeft=6;overflow=hidden;strokeColor=inherit;fontSize=14;rounded=0;" parent="kRf5InseIL7dYyA1KGaL-54" vertex="1">
          <mxGeometry x="35" width="285" height="30" as="geometry">
            <mxRectangle width="285" height="30" as="alternateBounds" />
          </mxGeometry>
        </mxCell>
        <mxCell id="kRf5InseIL7dYyA1KGaL-57" value="" style="shape=tableRow;horizontal=0;startSize=0;swimlaneHead=0;swimlaneBody=0;top=0;left=0;bottom=0;right=0;collapsible=0;dropTarget=0;fillColor=none;points=[[0,0.5],[1,0.5]];portConstraint=eastwest;strokeColor=inherit;fontSize=16;rounded=0;" parent="kRf5InseIL7dYyA1KGaL-53" vertex="1">
          <mxGeometry y="60" width="320" height="30" as="geometry" />
        </mxCell>
        <mxCell id="kRf5InseIL7dYyA1KGaL-58" value="FK" style="shape=partialRectangle;html=1;whiteSpace=wrap;connectable=0;fillColor=none;top=0;left=0;bottom=1;right=0;overflow=hidden;strokeColor=inherit;fontSize=14;rounded=0;" parent="kRf5InseIL7dYyA1KGaL-57" vertex="1">
          <mxGeometry width="35" height="30" as="geometry">
            <mxRectangle width="35" height="30" as="alternateBounds" />
          </mxGeometry>
        </mxCell>
        <mxCell id="kRf5InseIL7dYyA1KGaL-59" value="ID_недвижимости&amp;nbsp; &amp;nbsp; &amp;nbsp;integer&amp;nbsp; NOT NULL" style="shape=partialRectangle;html=1;whiteSpace=wrap;connectable=0;fillColor=none;top=0;left=0;bottom=1;right=0;align=left;spacingLeft=6;overflow=hidden;strokeColor=inherit;fontSize=14;rounded=0;" parent="kRf5InseIL7dYyA1KGaL-57" vertex="1">
          <mxGeometry x="35" width="285" height="30" as="geometry">
            <mxRectangle width="285" height="30" as="alternateBounds" />
          </mxGeometry>
        </mxCell>
        <mxCell id="kRf5InseIL7dYyA1KGaL-63" style="shape=tableRow;horizontal=0;startSize=0;swimlaneHead=0;swimlaneBody=0;top=0;left=0;bottom=0;right=0;collapsible=0;dropTarget=0;fillColor=none;points=[[0,0.5],[1,0.5]];portConstraint=eastwest;strokeColor=inherit;fontSize=16;rounded=0;" parent="kRf5InseIL7dYyA1KGaL-53" vertex="1">
          <mxGeometry y="90" width="320" height="30" as="geometry" />
        </mxCell>
        <mxCell id="kRf5InseIL7dYyA1KGaL-64" style="shape=partialRectangle;html=1;whiteSpace=wrap;connectable=0;fillColor=none;top=0;left=0;bottom=0;right=0;overflow=hidden;strokeColor=inherit;fontSize=16;rounded=0;" parent="kRf5InseIL7dYyA1KGaL-63" vertex="1">
          <mxGeometry width="35" height="30" as="geometry">
            <mxRectangle width="35" height="30" as="alternateBounds" />
          </mxGeometry>
        </mxCell>
        <mxCell id="kRf5InseIL7dYyA1KGaL-65" value="Описание&amp;nbsp; &amp;nbsp; &amp;nbsp; &amp;nbsp; &amp;nbsp; &amp;nbsp; &amp;nbsp; &amp;nbsp; &amp;nbsp; varchar(700)" style="shape=partialRectangle;html=1;whiteSpace=wrap;connectable=0;fillColor=none;top=0;left=0;bottom=0;right=0;align=left;spacingLeft=6;overflow=hidden;strokeColor=inherit;fontSize=14;rounded=0;" parent="kRf5InseIL7dYyA1KGaL-63" vertex="1">
          <mxGeometry x="35" width="285" height="30" as="geometry">
            <mxRectangle width="285" height="30" as="alternateBounds" />
          </mxGeometry>
        </mxCell>
        <mxCell id="kRf5InseIL7dYyA1KGaL-66" style="shape=tableRow;horizontal=0;startSize=0;swimlaneHead=0;swimlaneBody=0;top=0;left=0;bottom=0;right=0;collapsible=0;dropTarget=0;fillColor=none;points=[[0,0.5],[1,0.5]];portConstraint=eastwest;strokeColor=inherit;fontSize=16;rounded=0;" parent="kRf5InseIL7dYyA1KGaL-53" vertex="1">
          <mxGeometry y="120" width="320" height="30" as="geometry" />
        </mxCell>
        <mxCell id="kRf5InseIL7dYyA1KGaL-67" style="shape=partialRectangle;html=1;whiteSpace=wrap;connectable=0;fillColor=none;top=0;left=0;bottom=0;right=0;overflow=hidden;strokeColor=inherit;fontSize=16;rounded=0;" parent="kRf5InseIL7dYyA1KGaL-66" vertex="1">
          <mxGeometry width="35" height="30" as="geometry">
            <mxRectangle width="35" height="30" as="alternateBounds" />
          </mxGeometry>
        </mxCell>
        <mxCell id="kRf5InseIL7dYyA1KGaL-68" value="Статус&amp;nbsp; &amp;nbsp; &amp;nbsp; &amp;nbsp; &amp;nbsp; &amp;nbsp; &amp;nbsp; &amp;nbsp; &amp;nbsp; &amp;nbsp; &amp;nbsp; &amp;nbsp;varchar(50)" style="shape=partialRectangle;html=1;whiteSpace=wrap;connectable=0;fillColor=none;top=0;left=0;bottom=0;right=0;align=left;spacingLeft=6;overflow=hidden;strokeColor=inherit;fontSize=14;rounded=0;" parent="kRf5InseIL7dYyA1KGaL-66" vertex="1">
          <mxGeometry x="35" width="285" height="30" as="geometry">
            <mxRectangle width="285" height="30" as="alternateBounds" />
          </mxGeometry>
        </mxCell>
        <mxCell id="kRf5InseIL7dYyA1KGaL-69" style="shape=tableRow;horizontal=0;startSize=0;swimlaneHead=0;swimlaneBody=0;top=0;left=0;bottom=0;right=0;collapsible=0;dropTarget=0;fillColor=none;points=[[0,0.5],[1,0.5]];portConstraint=eastwest;strokeColor=inherit;fontSize=16;rounded=0;" parent="kRf5InseIL7dYyA1KGaL-53" vertex="1">
          <mxGeometry y="150" width="320" height="30" as="geometry" />
        </mxCell>
        <mxCell id="kRf5InseIL7dYyA1KGaL-70" style="shape=partialRectangle;html=1;whiteSpace=wrap;connectable=0;fillColor=none;top=0;left=0;bottom=0;right=0;overflow=hidden;strokeColor=inherit;fontSize=16;rounded=0;" parent="kRf5InseIL7dYyA1KGaL-69" vertex="1">
          <mxGeometry width="35" height="30" as="geometry">
            <mxRectangle width="35" height="30" as="alternateBounds" />
          </mxGeometry>
        </mxCell>
        <mxCell id="kRf5InseIL7dYyA1KGaL-71" value="Дата_создания&amp;nbsp; &amp;nbsp; &amp;nbsp; &amp;nbsp; &amp;nbsp;date" style="shape=partialRectangle;html=1;whiteSpace=wrap;connectable=0;fillColor=none;top=0;left=0;bottom=0;right=0;align=left;spacingLeft=6;overflow=hidden;strokeColor=inherit;fontSize=14;rounded=0;" parent="kRf5InseIL7dYyA1KGaL-69" vertex="1">
          <mxGeometry x="35" width="285" height="30" as="geometry">
            <mxRectangle width="285" height="30" as="alternateBounds" />
          </mxGeometry>
        </mxCell>
        <mxCell id="kRf5InseIL7dYyA1KGaL-83" value="Заявки_арендаторов" style="shape=table;startSize=30;container=1;collapsible=0;childLayout=tableLayout;fixedRows=1;rowLines=0;fontStyle=0;strokeColor=default;fontSize=14;fillColor=#6666FF;" parent="1" vertex="1">
          <mxGeometry x="801" y="280" width="380" height="120" as="geometry" />
        </mxCell>
        <mxCell id="kRf5InseIL7dYyA1KGaL-84" value="" style="shape=tableRow;horizontal=0;startSize=0;swimlaneHead=0;swimlaneBody=0;top=0;left=0;bottom=0;right=0;collapsible=0;dropTarget=0;fillColor=none;points=[[0,0.5],[1,0.5]];portConstraint=eastwest;strokeColor=inherit;fontSize=16;" parent="kRf5InseIL7dYyA1KGaL-83" vertex="1">
          <mxGeometry y="30" width="380" height="30" as="geometry" />
        </mxCell>
        <mxCell id="kRf5InseIL7dYyA1KGaL-85" value="PK" style="shape=partialRectangle;html=1;whiteSpace=wrap;connectable=0;fillColor=none;top=0;left=0;bottom=1;right=0;overflow=hidden;pointerEvents=1;strokeColor=inherit;fontSize=14;" parent="kRf5InseIL7dYyA1KGaL-84" vertex="1">
          <mxGeometry width="30" height="30" as="geometry">
            <mxRectangle width="30" height="30" as="alternateBounds" />
          </mxGeometry>
        </mxCell>
        <mxCell id="kRf5InseIL7dYyA1KGaL-86" value="&lt;font&gt;ID_заявки_арендаторов&amp;nbsp; &amp;nbsp;serial&amp;nbsp;&amp;nbsp;&lt;/font&gt;NOT NULL UNIQUE" style="shape=partialRectangle;html=1;whiteSpace=wrap;connectable=0;fillColor=none;top=0;left=0;bottom=1;right=0;align=left;spacingLeft=6;overflow=hidden;strokeColor=inherit;fontSize=14;" parent="kRf5InseIL7dYyA1KGaL-84" vertex="1">
          <mxGeometry x="30" width="350" height="30" as="geometry">
            <mxRectangle width="350" height="30" as="alternateBounds" />
          </mxGeometry>
        </mxCell>
        <mxCell id="kRf5InseIL7dYyA1KGaL-87" value="" style="shape=tableRow;horizontal=0;startSize=0;swimlaneHead=0;swimlaneBody=0;top=0;left=0;bottom=0;right=0;collapsible=0;dropTarget=0;fillColor=none;points=[[0,0.5],[1,0.5]];portConstraint=eastwest;strokeColor=inherit;fontSize=16;" parent="kRf5InseIL7dYyA1KGaL-83" vertex="1">
          <mxGeometry y="60" width="380" height="30" as="geometry" />
        </mxCell>
        <mxCell id="kRf5InseIL7dYyA1KGaL-88" value="FK" style="shape=partialRectangle;html=1;whiteSpace=wrap;connectable=0;fillColor=none;top=0;left=0;bottom=1;right=0;overflow=hidden;strokeColor=inherit;fontSize=14;" parent="kRf5InseIL7dYyA1KGaL-87" vertex="1">
          <mxGeometry width="30" height="30" as="geometry">
            <mxRectangle width="30" height="30" as="alternateBounds" />
          </mxGeometry>
        </mxCell>
        <mxCell id="kRf5InseIL7dYyA1KGaL-89" value="&lt;span&gt;ID_заявки&amp;nbsp; &amp;nbsp; &amp;nbsp; &amp;nbsp; &amp;nbsp; &amp;nbsp; &amp;nbsp; &amp;nbsp; &amp;nbsp; &amp;nbsp; &amp;nbsp; &amp;nbsp; &amp;nbsp; integer&amp;nbsp;&amp;nbsp;&lt;/span&gt;NOT NULL&amp;nbsp;" style="shape=partialRectangle;html=1;whiteSpace=wrap;connectable=0;fillColor=none;top=0;left=0;bottom=1;right=0;align=left;spacingLeft=6;overflow=hidden;strokeColor=inherit;fontSize=14;" parent="kRf5InseIL7dYyA1KGaL-87" vertex="1">
          <mxGeometry x="30" width="350" height="30" as="geometry">
            <mxRectangle width="350" height="30" as="alternateBounds" />
          </mxGeometry>
        </mxCell>
        <mxCell id="kRf5InseIL7dYyA1KGaL-90" value="" style="shape=tableRow;horizontal=0;startSize=0;swimlaneHead=0;swimlaneBody=0;top=0;left=0;bottom=0;right=0;collapsible=0;dropTarget=0;fillColor=none;points=[[0,0.5],[1,0.5]];portConstraint=eastwest;strokeColor=inherit;fontSize=16;" parent="kRf5InseIL7dYyA1KGaL-83" vertex="1">
          <mxGeometry y="90" width="380" height="30" as="geometry" />
        </mxCell>
        <mxCell id="kRf5InseIL7dYyA1KGaL-91" value="FK" style="shape=partialRectangle;html=1;whiteSpace=wrap;connectable=0;fillColor=none;top=0;left=0;bottom=1;right=0;overflow=hidden;strokeColor=inherit;fontSize=14;" parent="kRf5InseIL7dYyA1KGaL-90" vertex="1">
          <mxGeometry width="30" height="30" as="geometry">
            <mxRectangle width="30" height="30" as="alternateBounds" />
          </mxGeometry>
        </mxCell>
        <mxCell id="kRf5InseIL7dYyA1KGaL-92" value="&lt;span&gt;ID_арендатора&amp;nbsp; &amp;nbsp; &amp;nbsp; &amp;nbsp; &amp;nbsp; &amp;nbsp; &amp;nbsp; &amp;nbsp; &amp;nbsp; integer&amp;nbsp;&amp;nbsp;&lt;/span&gt;NOT NULL" style="shape=partialRectangle;html=1;whiteSpace=wrap;connectable=0;fillColor=none;top=0;left=0;bottom=1;right=0;align=left;spacingLeft=6;overflow=hidden;strokeColor=inherit;fontSize=14;" parent="kRf5InseIL7dYyA1KGaL-90" vertex="1">
          <mxGeometry x="30" width="350" height="30" as="geometry">
            <mxRectangle width="350" height="30" as="alternateBounds" />
          </mxGeometry>
        </mxCell>
        <mxCell id="kRf5InseIL7dYyA1KGaL-117" value="" style="edgeStyle=entityRelationEdgeStyle;fontSize=12;html=1;endArrow=ERzeroToMany;startArrow=ERmandOne;entryX=0;entryY=0.5;entryDx=0;entryDy=0;exitX=1;exitY=0.5;exitDx=0;exitDy=0;dashed=1;" parent="1" source="kRf5InseIL7dYyA1KGaL-21" target="kRf5InseIL7dYyA1KGaL-90" edge="1">
          <mxGeometry width="100" height="100" relative="1" as="geometry">
            <mxPoint x="820" y="170" as="sourcePoint" />
            <mxPoint x="600" y="350" as="targetPoint" />
          </mxGeometry>
        </mxCell>
        <mxCell id="kRf5InseIL7dYyA1KGaL-118" value="" style="edgeStyle=entityRelationEdgeStyle;fontSize=12;html=1;endArrow=ERzeroToMany;startArrow=ERmandOne;exitX=1;exitY=0.5;exitDx=0;exitDy=0;entryX=0;entryY=0.5;entryDx=0;entryDy=0;dashed=1;" parent="1" source="kRf5InseIL7dYyA1KGaL-54" target="kRf5InseIL7dYyA1KGaL-87" edge="1">
          <mxGeometry width="100" height="100" relative="1" as="geometry">
            <mxPoint x="500" y="450" as="sourcePoint" />
            <mxPoint x="600" y="350" as="targetPoint" />
          </mxGeometry>
        </mxCell>
        <mxCell id="kRf5InseIL7dYyA1KGaL-126" style="edgeStyle=orthogonalEdgeStyle;orthogonalLoop=1;jettySize=auto;html=1;" parent="1" source="kRf5InseIL7dYyA1KGaL-125" edge="1">
          <mxGeometry relative="1" as="geometry">
            <mxPoint x="370" y="200" as="targetPoint" />
            <Array as="points">
              <mxPoint x="235" y="220" />
              <mxPoint x="370" y="220" />
            </Array>
          </mxGeometry>
        </mxCell>
        <mxCell id="kRf5InseIL7dYyA1KGaL-125" value="1 арендатор может составить&amp;nbsp;&lt;div&gt;много договоров&lt;/div&gt;" style="text;html=1;align=center;verticalAlign=middle;resizable=0;points=[];autosize=1;strokeColor=none;fillColor=none;" parent="1" vertex="1">
          <mxGeometry x="140" y="173" width="190" height="40" as="geometry" />
        </mxCell>
        <mxCell id="kRf5InseIL7dYyA1KGaL-133" style="edgeStyle=orthogonalEdgeStyle;orthogonalLoop=1;jettySize=auto;html=1;" parent="1" source="kRf5InseIL7dYyA1KGaL-127" edge="1">
          <mxGeometry relative="1" as="geometry">
            <mxPoint x="340" y="520" as="targetPoint" />
            <Array as="points">
              <mxPoint x="215" y="520" />
            </Array>
          </mxGeometry>
        </mxCell>
        <mxCell id="kRf5InseIL7dYyA1KGaL-127" value="с 1 недвижимостью можно&amp;nbsp;&lt;div&gt;составить 1 договор&lt;/div&gt;" style="text;html=1;align=center;verticalAlign=middle;resizable=0;points=[];autosize=1;strokeColor=none;fillColor=none;" parent="1" vertex="1">
          <mxGeometry x="125" y="535" width="180" height="40" as="geometry" />
        </mxCell>
        <mxCell id="kRf5InseIL7dYyA1KGaL-128" value="" style="edgeStyle=entityRelationEdgeStyle;fontSize=12;html=1;endArrow=ERzeroToOne;startArrow=ERmandOne;exitX=0;exitY=0.5;exitDx=0;exitDy=0;entryX=1;entryY=0.5;entryDx=0;entryDy=0;" parent="1" source="kRf5InseIL7dYyA1KGaL-8" target="kRf5InseIL7dYyA1KGaL-40" edge="1">
          <mxGeometry width="100" height="100" relative="1" as="geometry">
            <mxPoint x="500" y="500" as="sourcePoint" />
            <mxPoint x="600" y="400" as="targetPoint" />
            <Array as="points">
              <mxPoint x="370" y="470" />
            </Array>
          </mxGeometry>
        </mxCell>
        <mxCell id="kRf5InseIL7dYyA1KGaL-129" value="" style="edgeStyle=entityRelationEdgeStyle;fontSize=12;html=1;endArrow=ERoneToMany;exitX=0;exitY=0.5;exitDx=0;exitDy=0;entryX=1;entryY=0.5;entryDx=0;entryDy=0;dashed=1;" parent="1" source="kRf5InseIL7dYyA1KGaL-21" target="kRf5InseIL7dYyA1KGaL-37" edge="1">
          <mxGeometry width="100" height="100" relative="1" as="geometry">
            <mxPoint x="300" y="120" as="sourcePoint" />
            <mxPoint x="600" y="300" as="targetPoint" />
            <Array as="points">
              <mxPoint x="370" y="300" />
              <mxPoint x="350" y="270" />
            </Array>
          </mxGeometry>
        </mxCell>
        <mxCell id="kRf5InseIL7dYyA1KGaL-131" value="" style="edgeStyle=entityRelationEdgeStyle;fontSize=12;html=1;endArrow=ERoneToMany;exitX=1;exitY=0.5;exitDx=0;exitDy=0;dashed=1;entryX=1;entryY=0.5;entryDx=0;entryDy=0;" parent="1" source="kRf5InseIL7dYyA1KGaL-8" target="kRf5InseIL7dYyA1KGaL-57" edge="1">
          <mxGeometry width="100" height="100" relative="1" as="geometry">
            <mxPoint x="785" y="590" as="sourcePoint" />
            <mxPoint x="755" y="360" as="targetPoint" />
            <Array as="points">
              <mxPoint x="780" y="525" />
              <mxPoint x="845" y="435" />
              <mxPoint x="770" y="410" />
              <mxPoint x="750" y="460" />
            </Array>
          </mxGeometry>
        </mxCell>
        <mxCell id="kRf5InseIL7dYyA1KGaL-135" style="edgeStyle=orthogonalEdgeStyle;orthogonalLoop=1;jettySize=auto;html=1;" parent="1" source="kRf5InseIL7dYyA1KGaL-134" edge="1">
          <mxGeometry relative="1" as="geometry">
            <mxPoint x="750" y="520" as="targetPoint" />
            <Array as="points">
              <mxPoint x="790" y="490" />
              <mxPoint x="790" y="520" />
            </Array>
          </mxGeometry>
        </mxCell>
        <mxCell id="kRf5InseIL7dYyA1KGaL-134" value="от 1 недвижимости может поступать&amp;nbsp;&lt;div&gt;много заказов на обслуживание&lt;/div&gt;" style="text;html=1;align=center;verticalAlign=middle;resizable=0;points=[];autosize=1;strokeColor=none;fillColor=none;" parent="1" vertex="1">
          <mxGeometry x="850" y="470" width="230" height="40" as="geometry" />
        </mxCell>
        <mxCell id="kRf5InseIL7dYyA1KGaL-137" style="edgeStyle=orthogonalEdgeStyle;orthogonalLoop=1;jettySize=auto;html=1;exitX=0.417;exitY=0.98;exitDx=0;exitDy=0;exitPerimeter=0;" parent="1" source="kRf5InseIL7dYyA1KGaL-136" edge="1">
          <mxGeometry relative="1" as="geometry">
            <mxPoint x="770" y="340" as="targetPoint" />
            <Array as="points">
              <mxPoint x="790" y="199" />
              <mxPoint x="790" y="340" />
            </Array>
          </mxGeometry>
        </mxCell>
        <mxCell id="kRf5InseIL7dYyA1KGaL-136" value="множество арендаторов может составить&amp;nbsp;&lt;div&gt;множество заявок&lt;/div&gt;" style="text;html=1;align=center;verticalAlign=middle;resizable=0;points=[];autosize=1;strokeColor=none;fillColor=none;" parent="1" vertex="1">
          <mxGeometry x="850" y="160" width="260" height="40" as="geometry" />
        </mxCell>
        <mxCell id="ElRaMWHxmPoETTOg04hM-5" value="Недвижимость - Договоры&amp;nbsp; 1-1&lt;div&gt;Арендаторы-Договоры&amp;nbsp; &amp;nbsp; &amp;nbsp; &amp;nbsp;1-М&lt;/div&gt;&lt;div&gt;Заявки-Арендаторы&amp;nbsp; &amp;nbsp; &amp;nbsp; &amp;nbsp; &amp;nbsp; М-М&lt;/div&gt;&lt;div&gt;Недвижимость-Заявки&amp;nbsp; &amp;nbsp; &amp;nbsp; &amp;nbsp; 1-М&lt;/div&gt;" style="text;html=1;align=center;verticalAlign=middle;resizable=0;points=[];autosize=1;strokeColor=none;fillColor=none;" vertex="1" parent="1">
          <mxGeometry x="940" y="610" width="200" height="70" as="geometry" />
        </mxCell>
      </root>
    </mxGraphModel>
  </diagram>
</mxfile>
